<?xml version="1.0" encoding="UTF-8"?>
<svg id="Layer_2" data-name="Layer 2" xmlns="http://www.w3.org/2000/svg" xmlns:xlink="http://www.w3.org/1999/xlink" viewBox="0 0 558.57 516.83">
  <defs>
    <style>
      .cls-1 {
        fill: url(#linear-gradient-15);
      }

      .cls-2 {
        fill: url(#linear-gradient-13);
      }

      .cls-3 {
        fill: url(#linear-gradient-2);
      }

      .cls-4 {
        fill: url(#linear-gradient-10);
      }

      .cls-5 {
        fill: url(#linear-gradient-12);
      }

      .cls-6 {
        fill: url(#linear-gradient-4);
      }

      .cls-7 {
        fill: url(#linear-gradient-3);
      }

      .cls-8 {
        fill: url(#linear-gradient-5);
      }

      .cls-9 {
        fill: url(#linear-gradient-8);
      }

      .cls-10 {
        fill: url(#linear-gradient-14);
      }

      .cls-11 {
        fill: url(#linear-gradient-17);
      }

      .cls-12 {
        fill: url(#linear-gradient-7);
      }

      .cls-13 {
        fill: url(#linear-gradient-9);
      }

      .cls-14 {
        fill: url(#linear-gradient-11);
      }

      .cls-15 {
        fill: url(#linear-gradient-6);
      }

      .cls-16 {
        fill: url(#linear-gradient-16);
      }

      .cls-17 {
        fill: url(#linear-gradient);
      }
    </style>
    <linearGradient id="linear-gradient" x1="165.35" y1="203.67" x2="165.35" y2="516.83" gradientUnits="userSpaceOnUse">
      <stop offset="0" stop-color="#2ebf00"/>
      <stop offset=".19" stop-color="#65d11b"/>
      <stop offset=".39" stop-color="#95e133"/>
      <stop offset=".57" stop-color="#baee46"/>
      <stop offset=".74" stop-color="#d5f753"/>
      <stop offset=".89" stop-color="#e6fd5c"/>
      <stop offset="1" stop-color="#ecff5f"/>
    </linearGradient>
    <linearGradient id="linear-gradient-2" x1="69.99" y1="148.82" x2="69.99" y2="191.96" gradientUnits="userSpaceOnUse">
      <stop offset="0" stop-color="#2ebf00"/>
      <stop offset=".14" stop-color="#56cc14"/>
      <stop offset=".36" stop-color="#8bde2e"/>
      <stop offset=".56" stop-color="#b5ec43"/>
      <stop offset=".74" stop-color="#d3f652"/>
      <stop offset=".89" stop-color="#e5fc5b"/>
      <stop offset="1" stop-color="#ecff5f"/>
    </linearGradient>
    <linearGradient id="linear-gradient-3" x1="244.49" y1="150.89" x2="244.49" y2="460.48" gradientUnits="userSpaceOnUse">
      <stop offset="0" stop-color="#fff"/>
      <stop offset="1" stop-color="#798a94"/>
    </linearGradient>
    <linearGradient id="linear-gradient-4" x1="108.33" y1="438.73" x2="198.95" y2="281.77" gradientUnits="userSpaceOnUse">
      <stop offset="0" stop-color="#2ebf00"/>
      <stop offset=".31" stop-color="#30bf01"/>
      <stop offset=".46" stop-color="#37c204"/>
      <stop offset=".58" stop-color="#44c60b"/>
      <stop offset=".67" stop-color="#57cc14"/>
      <stop offset=".76" stop-color="#6ed420"/>
      <stop offset=".83" stop-color="#8cde2f"/>
      <stop offset=".91" stop-color="#afea40"/>
      <stop offset=".97" stop-color="#d7f754"/>
      <stop offset="1" stop-color="#ecff5f"/>
    </linearGradient>
    <linearGradient id="linear-gradient-5" x1="69.81" y1="191.96" x2="69.81" y2="148.82" xlink:href="#linear-gradient-2"/>
    <linearGradient id="linear-gradient-6" x1="190.67" y1="460.47" x2="190.67" y2="150.89" xlink:href="#linear-gradient-3"/>
    <linearGradient id="linear-gradient-7" x1="244.49" y1="150.89" x2="244.49" y2="170.4" xlink:href="#linear-gradient-3"/>
    <linearGradient id="linear-gradient-8" x1="255.35" y1="421.56" x2="255.35" y2="276.21" xlink:href="#linear-gradient-3"/>
    <linearGradient id="linear-gradient-9" x1="295.66" y1="89.56" x2="295.66" y2="410.24" gradientUnits="userSpaceOnUse">
      <stop offset="0" stop-color="#2ebf00"/>
      <stop offset="1" stop-color="#ecff5f"/>
    </linearGradient>
    <linearGradient id="linear-gradient-10" x1="295.66" y1="89.56" x2="295.66" y2="410.24" gradientUnits="userSpaceOnUse">
      <stop offset="0" stop-color="#2ebf00"/>
      <stop offset=".02" stop-color="#38c205"/>
      <stop offset=".15" stop-color="#67d21c"/>
      <stop offset=".28" stop-color="#90e031"/>
      <stop offset=".42" stop-color="#b1eb41"/>
      <stop offset=".55" stop-color="#cbf34e"/>
      <stop offset=".69" stop-color="#ddfa57"/>
      <stop offset=".84" stop-color="#e8fd5d"/>
      <stop offset="1" stop-color="#ecff5f"/>
    </linearGradient>
    <linearGradient id="linear-gradient-11" x1="172.41" y1="329.57" x2="372.88" y2="-17.65" xlink:href="#linear-gradient-9"/>
    <linearGradient id="linear-gradient-12" x1="247.71" y1="81.86" x2="247.71" y2="1.52" xlink:href="#linear-gradient-3"/>
    <linearGradient id="linear-gradient-13" x1="246.6" y1="0" x2="246.6" y2="85.32" xlink:href="#linear-gradient-3"/>
    <linearGradient id="linear-gradient-14" x1="382.22" y1="494.99" x2="382.22" y2="155.37" xlink:href="#linear-gradient-3"/>
    <linearGradient id="linear-gradient-15" x1="381.47" y1="151.95" x2="381.47" y2="496.95" xlink:href="#linear-gradient-3"/>
    <linearGradient id="linear-gradient-16" x1="105.36" y1="493.6" x2="105.36" y2="159.4" xlink:href="#linear-gradient-3"/>
    <linearGradient id="linear-gradient-17" x1="106.06" y1="155.87" x2="106.06" y2="495.66" xlink:href="#linear-gradient-3"/>
  </defs>
  <g id="Layer_1-2" data-name="Layer 1">
    <g>
      <g>
        <path class="cls-17" d="M61.99,203.67h20.8c19.27,0,37.08,10.21,46.8,26.84l137.25,236.76c2.52,4.36,2.5,9.74-.07,14.07l-23.15,35.49L61.99,203.67Z"/>
        <path class="cls-3" d="M107.17,191.32l-.37.65-31.73-.41c-10.99-.14-21.08-6.06-26.58-15.57l-15.68-27.16h27.41c13.87,0,26.68,7.4,33.61,19.41l13.34,23.09Z"/>
      </g>
      <path class="cls-7" d="M386.36,154.54c-1.32-2.29-3.68-3.64-6.32-3.64H101.63l178.09,309.59,19.23-33.28c1.88-3.28,1.9-7.35.02-10.62l-79.93-140.37,54.14-.02c15.62-.19,30.67-4.85,43.54-12.99,11.28-7.13,20.88-16.92,27.72-28.77l36.97-64.03,4.94-8.57c1.32-2.27,1.32-5,0-7.29ZM317.75,217.39c-3.76,14.07-15.51,23.73-28.86,23.73h-92.76l-26.93-51.2h155.9l-7.35,27.47Z"/>
    </g>
    <path class="cls-6" d="M258.22,494.44L119.85,254.53c-11.88-20.59-29.65-37.15-51.04-47.54l-6.82-3.31,181.62,313.16,14.61-22.39Z"/>
    <path class="cls-8" d="M106.81,191.96l-31.73-.41c-10.99-.14-21.08-6.06-26.58-15.57l-15.68-27.16s36.83,5.47,74,43.14Z"/>
    <path class="cls-15" d="M277.65,421.56s-141.13-249.94-141.88-251.17-34.14-19.5-34.14-19.5l178.09,309.58-2.07-38.91Z"/>
    <path class="cls-12" d="M385.8,161.82l-4.95,8.57h-245.64s-33.02-19.5-33.02-19.5h277.3c2.63,0,4.99,1.36,6.31,3.65s1.32,5.02,0,7.28Z"/>
    <path class="cls-9" d="M298.97,416.57l-21.33,4.99-61.99-109.76c-5.37-9.51-5.23-21.16.37-30.54l3.02-5.05,79.92,140.36Z"/>
    <g>
      <path class="cls-13" d="M106.37,89.56c-15.18,0-29.79,4.05-42.51,11.38-4.15,2.39-8.09,5.14-11.79,8.21-7.64,6.33-14.21,14.04-19.33,22.89l.38.67,365.77-.62c10.23-.02,16.65,11.03,11.56,19.91l-118.53,206.89c-2.77,4.82-2.78,10.74-.05,15.57l9.56,16.88,10.71,18.9,159.21-277.54h12.49c30.82,0,59.31-16.46,74.72-43.14H106.37Z"/>
      <path class="cls-4" d="M558.57,89.56c-15.41,26.68-43.91,43.14-74.72,43.14h-12.49l-159.21,277.54-10.71-18.9-9.56-16.88c-2.73-4.83-2.72-10.74.05-15.57l118.53-206.89c5.08-8.87-1.33-19.93-11.56-19.91l-365.77.62-.38-.67c5.12-8.84,11.69-16.56,19.33-22.89,3.69-3.07,7.64-5.82,11.79-8.21,12.71-7.33,27.33-11.38,42.51-11.38h452.19Z"/>
    </g>
    <path class="cls-14" d="M558.57,89.56c-15.41,26.68-43.91,43.14-74.72,43.14h-12.49l-159.21,277.54-10.71-18.9c.06-.11.13-.22.19-.34,24.16-41.05,110.32-195.81,143.41-255.32,5.9-10.61-1.69-23.67-13.83-23.8-78.7-.78-307.37-2.96-378.32-2.73h-.81c3.69-3.07,7.64-5.82,11.79-8.21,12.71-7.33,27.33-11.38,42.51-11.38h452.19Z"/>
    <g>
      <path class="cls-5" d="M429.13,75.92c-6.55,1.37-143.56,0-143.56,0l92.82-8.83c-24.35-10.3-60.95-32.69-124.12-32.69-80.9,0-96.42,18.46-119.68,27.7l98.02,14.3H91.05c-8.45.79-16.76,2.64-24.76,5.46,1.71-1.85,3.45-3.66,5.23-5.46C117.14,30.15,180.5,1.52,250.57,1.52s133.01,28.46,178.57,74.4Z"/>
      <path class="cls-2" d="M61.02,85.32l4.16-4.5c1.72-1.86,3.48-3.69,5.27-5.5C118.35,26.75,182.32,0,250.57,0s131.78,26.58,179.64,74.85l1.97,1.98-2.73.57c-6.63,1.39-138.28.09-143.88.03l-.13-3.03,87.01-8.28c-2.25-1.02-4.6-2.11-7.02-3.23-24.54-11.39-58.16-26.98-111.15-26.98-64.16,0-86.92,11.66-105.21,21.02-3.04,1.56-5.97,3.06-8.95,4.43l92.72,13.52-.22,3.02H91.06c-8.11.77-16.32,2.58-24.26,5.37l-5.78,2.03ZM250.57,3.04c-67.42,0-130.62,26.43-177.96,74.43-.37.37-.74.75-1.11,1.13,6.37-1.85,12.88-3.09,19.42-3.71h120.78s-82.93-12.1-82.93-12.1l5.27-2.1c4.64-1.85,9.02-4.08,13.65-6.46,18.58-9.51,41.71-21.36,106.6-21.36,53.66,0,87.62,15.76,112.43,27.27,4.38,2.03,8.51,3.95,12.28,5.54l5.54,2.34-69.67,6.63c40.59.31,96.76.59,110.86,0C378.7,28.45,316.63,3.04,250.57,3.04Z"/>
    </g>
    <g>
      <path class="cls-10" d="M490.49,245.88c0,127.04-94.18,232.1-216.53,249.11.09-.14.18-.28.26-.44.18-.28.35-.6.55-.93.53-.86,1.11-1.9,1.78-3.05,15.8-27.45,71.71-130.51,71.71-130.51l-10.67,64c61.81-34.23,103.9-99.71,105.01-175.13l-48.89,41.14c1.04-1.74,59.08-99.44,75.69-127.41l.76-1.29c.25-.41.48-.81.7-1.18.46-.77.88-1.48,1.23-2.08.86-1.48,1.43-2.43,1.62-2.75,10.85,28.09,16.78,58.61,16.78,90.52Z"/>
      <path class="cls-1" d="M270.94,496.95l1.73-2.76c.07-.12.15-.24.22-.37.16-.26.28-.47.41-.69l.15-.26c.35-.58.71-1.19,1.09-1.86l.69-1.19c15.6-27.12,71.13-129.44,71.68-130.47l4.32-7.97-11.64,69.81c60.66-34.85,99.2-99.06,101.39-168.92l-53.21,44.78,4.62-7.75c1.04-1.74,59.08-99.44,75.69-127.4l2.69-4.54c.87-1.49,1.44-2.45,1.63-2.77l1.6-2.63,1.11,2.87c11.2,29.01,16.88,59.65,16.88,91.06,0,61.44-22.29,120.69-62.76,166.82-40.1,45.71-95.18,75.47-155.08,83.8l-3.23.45ZM345.26,368.75c-13.44,24.73-54.35,99.9-67.4,122.58l-.69,1.19c-.1.18-.2.35-.3.52,121.13-18.42,212.09-124.11,212.09-247.15,0-29.98-5.23-59.24-15.56-87.02,0,0,0,.01,0,.02l-2.7,4.55c-13.91,23.43-56.91,95.8-71.1,119.69l44.56-37.5-.05,3.33c-1.08,73.29-41.62,140.89-105.79,176.44l-2.75,1.52,9.7-58.17Z"/>
    </g>
    <g>
      <path class="cls-16" d="M209.19,493.6C91.19,472.86,1.52,369.84,1.52,245.88c0-30.39,5.39-59.52,15.27-86.48l66.55,112.49-33.86-30.48c-.04,1.48-.05,2.98-.05,4.47,0,73.19,38.6,137.34,96.56,173.23l-10.83-54.29,74.05,128.78Z"/>
      <path class="cls-11" d="M212.13,495.66l-3.2-.56C87.87,473.82,0,369,0,245.88c0-29.92,5.17-59.19,15.36-87l1.1-3.01,73.23,123.79-38.76-34.89c0,.37,0,.74,0,1.11,0,69.33,34.64,132.63,92.86,170.06l-11.95-59.91,80.29,139.63ZM17.12,162.95c-9.35,26.57-14.09,54.46-14.09,82.93,0,120.55,85.26,223.34,203.21,245.64l-67.8-117.91,9.7,48.64-2.97-1.84c-60.91-37.72-97.28-102.96-97.28-174.52,0-1.51.02-3.02.05-4.51l.08-3.3,28.94,26.05-59.85-101.17Z"/>
    </g>
  </g>
</svg>